<?xml version="1.0" ?><svg class="temperatura-svg" viewBox="0 0 64 64" xmlns="http://www.w3.org/2000/svg"><title/><g id="Thermometer"><path d="M37,32.05V13a11,11,0,0,0-22,0V32.05a17,17,0,1,0,22,0ZM26,60a14.9926,14.9926,0,0,1-9.374-26.6992,1.0015,1.0015,0,0,0,.374-.78V13a9,9,0,0,1,18,0V32.5205a1.0015,1.0015,0,0,0,.374.78A14.9926,14.9926,0,0,1,26,60Z"/><path d="M33.4966,35.64,32,34.44V26a6,6,0,0,0-12,0v8.44l-1.4966,1.2a12,12,0,1,0,14.9932,0ZM26,55a9.9927,9.9927,0,0,1-6.2446-17.8l1.8706-1.501a1.0014,1.0014,0,0,0,.374-.78V26a4,4,0,0,1,8,0v8.9189a1.0014,1.0014,0,0,0,.374.78L32.2446,37.2A9.9927,9.9927,0,0,1,26,55Z"/><path d="M54,28H42a1,1,0,0,0,0,2H54a1,1,0,0,0,0-2Z"/><path d="M42,22h9a1,1,0,0,0,0-2H42a1,1,0,0,0,0,2Z"/><path d="M42,14h6a1,1,0,0,0,0-2H42a1,1,0,0,0,0,2Z"/></g></svg>